<svg xmlns="http://www.w3.org/2000/svg" viewBox="0 0 40 40" fill="none">
  <defs>
    <linearGradient id="ccFavGrad" x1="0" y1="0" x2="40" y2="40" gradientUnits="userSpaceOnUse">
      <stop offset="0%" stop-color="#4F46E5" />
      <stop offset="50%" stop-color="#7C3AED" />
      <stop offset="100%" stop-color="#EC4899" />
    </linearGradient>
    <linearGradient id="ccFavCap" x1="10" y1="8" x2="30" y2="22" gradientUnits="userSpaceOnUse">
      <stop offset="0%" stop-color="#FFFFFF" />
      <stop offset="100%" stop-color="#E0E7FF" />
    </linearGradient>
  </defs>
  <rect x="2" y="2" width="36" height="36" rx="10" fill="url(#ccFavGrad)" />
  <rect x="2" y="2" width="36" height="36" rx="10" stroke="rgba(255,255,255,0.25)" stroke-width="1" />
  <path d="M20 9L31 15L20 21L9 15L20 9Z" fill="url(#ccFavCap)" />
  <path d="M13 17.5V22.5C13 24.5 16.1 26 20 26C23.9 26 27 24.5 27 22.5V17.5" stroke="#FFFFFF" stroke-width="1.8" stroke-linecap="round" />
  <path d="M29 16.5V22.5L30.5 24" stroke="#FDE047" stroke-width="1.5" stroke-linecap="round" stroke-linejoin="round" />
  <circle cx="10" cy="30" r="2.2" fill="#38BDF8" />
  <circle cx="20" cy="31.5" r="2.2" fill="#F472B6" />
  <circle cx="30" cy="30" r="2.2" fill="#34D399" />
  <path d="M12 29.5C14.5 28 17 27.5 20 27.5C23 27.5 25.5 28 28 29.5" stroke="rgba(255,255,255,0.7)" stroke-width="1.2" stroke-dasharray="2 2" />
</svg>